<svg xmlns="http://www.w3.org/2000/svg" viewBox="0 0 640 512">
<!--! Font Awesome Pro 6.2.0 by @fontawesome - https://fontawesome.com License - https://fontawesome.com/license (Commercial License) Copyright 2022 Fonticons, Inc.-->
  <path fill="#fff" d="M312 32a24 24 0 1 0 0 48h25.7l34.6 64H222.9l-27.4-38A24 24 0 0 0 176 96h-56a24 24 0 1 0 0 48h43.7l22.1 30.7-26.6 53.1A128 128 0 1 0 255 368h49c8.5 0 16.3-4.5 20.7-11.8l84.8-143.5 21.7 40.1a128 128 0 1 0 42.1-22.8L375.4 48.8A32 32 0 0 0 347.2 32H312zm146.6 271.7 32.3 59.7a24 24 0 1 0 42.2-22.8l-32.3-59.7a72 72 0 1 1-42.2 22.8zM133.2 368h65a72 72 0 1 1-65.1-87.8l-24.2 48.5a27.2 27.2 0 0 0 24.3 39.4zm33.7-48 50.7-101.3 72.9 101.2-.1.1H166.8zm90.6-128h108.4L317 274.8 257.4 192z"/>
</svg>
