<svg xmlns="http://www.w3.org/2000/svg" viewBox="0 0 384 512">
<!--! Font Awesome Pro 6.2.0 by @fontawesome - https://fontawesome.com License - https://fontawesome.com/license (Commercial License) Copyright 2022 Fonticons, Inc.-->
  <path fill="#fff" d="M288 48a48 48 0 1 1-96 0 48 48 0 0 1 96 0zm-44.7 182.7L224.2 307l49.7 49.7a48 48 0 0 1 14.1 33.9V480a32 32 0 1 1-64 0v-82.7l-73.9-73.9a63.8 63.8 0 0 1-16.9-60.3l20.4-84a63.2 63.2 0 0 1 76.7-46.4 78.7 78.7 0 0 1 46.4 32.7l28.4 42.6H336v-24a24 24 0 1 1 48 0v304a24 24 0 1 1-48 0V272h-39.4c-16 0-31-8-39.9-21.4l-13.3-20zM81.1 471.9 117.3 334c3 4.2 6.4 8.2 10.1 11.9l41.9 41.9-26.4 100.3A32 32 0 1 1 81 471.8zm55.5-346-35.2 140.6a24 24 0 0 1-27.2 17.9l-47.9-8a24 24 0 0 1-19.2-30L31.9 155a80 80 0 0 1 77.2-59h4.2a24 24 0 0 1 23.3 29.8z"/>
</svg>
